<svg width="40" height="42" xmlns="http://www.w3.org/2000/svg" xmlns:xlink="http://www.w3.org/1999/xlink">
    <defs>
        <path id="a" d="M0 0h40v42H0z"/>
    </defs>
    <g fill="none" fill-rule="evenodd">
        <g>
            <mask id="b" fill="#fff">
                <use xlink:href="#a"/>
            </mask>
            <path d="M3.567 3.588C1.937 4.369 0 6.098 0 9.875c0 .584.046 1.208.14 1.862l.038.291c.235 1.734.959 7.021 3.638 12.576 2.7 5.582 5.2 9.14 9.235 13.135.032.03 3.048 2.978 4.541 3.721a5.577 5.577 0 0 0 2.405.546h-.034.066-.031a5.564 5.564 0 0 0 2.407-.546c1.494-.743 4.513-3.691 4.542-3.721 4.037-3.996 6.538-7.553 9.236-13.135 2.682-5.555 3.398-10.842 3.64-12.58l.04-.297c.71-5.02-1.472-7.197-3.427-8.139C31.497 1.207 25.968 0 19.998 0 14.031 0 8.502 1.207 3.568 3.588" fill="#FFFFFE" mask="url(#b)"/>
        </g>
        <path d="M24.802 10.567h.916l.005-2.02h-.011l-.91 2.02zm9.87 2.163H32.53l1.15-5.351h2.14l-1.148 5.351zm-3.881 0h-2.143l.843-3.913h-1.335l.309-1.438h4.81l-.312 1.438h-1.33l-.842 3.913zm-5.013 0-.025-.86H24.2l-.4.86h-2.053l2.879-5.351h2.782l.59 5.351h-2.22zm-6.49.143c-1.895 0-2.527-1.145-2.164-2.842.307-1.667 1.553-2.795 3.383-2.795 1.364 0 2.4.552 2.07 2.123h-1.964c.101-.608-.097-.726-.361-.726-.555 0-.725.56-.914 1.422-.17.813-.261 1.423.28 1.423.279 0 .499-.161.652-.724h2.008c-.316 1.471-1.648 2.119-2.99 2.119zm-5.874 0c-1.635 0-2.43-.648-2.154-1.935l.763-3.559h2.145l-.747 3.468c-.09.423.077.587.301.587.225 0 .463-.164.554-.587l.745-3.468h2.143l-.762 3.56c-.278 1.286-1.354 1.934-2.988 1.934zm-2.508-2.76c-.35 1.615-1.626 2.617-3.292 2.617H4.95l1.147-5.351h2.541c2.165 0 2.609 1.146 2.27 2.734zm25.305-5.35c-5.216-2.516-10.751-3.45-15.827-3.45-5.076 0-10.608.934-15.822 3.45-1.85.891-2.784 2.587-2.784 5.048 0 .524.044 1.08.127 1.668l.043.298c.165 1.225.575 4.257 1.78 7.877 1.38-1.757 6.887-3.253 16.656-3.762 9.212-.48 15.792-.448 17.803-.424.364-1.676.542-2.986.639-3.69l.041-.299c.48-3.377-.415-5.636-2.656-6.717zM8.143 8.592h-.208l-.63 2.921h.212c.341 0 .572-.123.755-.337.19-.224.316-.602.425-1.122.112-.521.15-.9.056-1.118-.091-.216-.263-.344-.61-.344zm19.475 9.574c-10.626 1.643-15.767 4.423-18.272 7.04-1.92 2.007-1.25 3.548-.738 4.436 1.646 2.547 3.46 4.727 5.817 7.056.752.744 3.144 2.952 4.177 3.464.853.421 1.744.402 1.782.402.043 0 .932.02 1.784-.402 1.033-.512 3.425-2.72 4.18-3.464 3.913-3.87 6.34-7.327 8.964-12.754a37.591 37.591 0 0 0 2.457-6.737l.007-.031c-2.32.047-5.638.29-10.158.99z" fill="#D1252B"/>
    </g>
</svg>
