<svg width="53" height="42" xmlns="http://www.w3.org/2000/svg">
    <g fill-rule="nonzero" fill="none">
        <path d="M27 1.266c4.523 3.276 11.133 5.267 16.248 5.385l.536.04v6.798H52v14.797h-5.049l-.495.507-1.234 1.1C39.673 34.837 31.957 40.775 26.704 41h-.046c-4.029-.133-10.827-4.161-18.646-11.035l-1.183-1.04-.607-.634H1V13.5h8.39V6.687l.545-.026c6.646-.312 11.694-1.976 16.371-5.405L26.638 1l.362.266z" stroke="#000" stroke-width=".5" fill="#FFF"/>
        <path d="M26.638 1.727c4.539 3.531 10.71 5.047 16.56 5.507v4.806c-1.24-.066-2.25 1.239-2.25 2.032h10.465v13.636h-9.7c.23 1.264 1.908 1.822 3.116 1.755-6.446 5.748-13.566 10.764-18.16 10.964-4.193-.138-11.277-4.725-18.29-10.892 2.908.046 3.168-1.822 3.168-1.822H1.57v-13.63h10.435c-.051-.993-.964-1.925-2.05-2.032V7.244c6.222-.296 11.592-1.791 16.682-5.517z" fill="#000"/>
        <path d="M41.994 8.278v3.015c-1.143.24-2.3 1.797-2.3 2.79h-.944c.092-1.884 1.143-2.8 2.3-3.425V9.164C36.057 9.04 30.238 6.886 26.622 4.44c-3.29 2.22-9.43 4.596-14.473 4.724v1.5a4.047 4.047 0 0 1 2.172 3.419h-.99c-.213-1.495-1.065-2.288-2.105-2.872V8.345c5.701-.323 12.117-2.539 15.407-5.093 3.151 2.585 9.756 4.601 15.36 5.026z" fill="#F60"/>
        <path d="m28.861 7.014-.01 1.275-1.606-.794v6.588h-1.26V7.495l-1.57.783.01-1.254s1.815-.916 2.213-1.208c.418.302 2.223 1.198 2.223 1.198zM18.518 14.083c0-.635.031-1.695-.122-1.869-.311.568-.581 1.27-.841 1.797-.266-.532-.541-1.162-.878-1.597l-.035 1.669h-1.143V9.885c.622-.107.806-.163 1.133-.214l.897 1.95.944-2.324c.387-.113.78-.2 1.178-.271v5.051l-1.133.006zM24.302 8.82v4.275c-.01.993-.347.967-2.03.977-1.382.01-1.836.031-1.851-1.361V9.793c.025-1.105.31-1.049 1.566-1.678 1.953-.952 2.259-.63 2.315.706zm-1.097.518c0-.68-1.438.148-1.53.245-.29.297-.219 2.207-.209 3.01 0 .18.092.39.316.39.363 0 .893.01 1.194 0a.217.217 0 0 0 .235-.195c0-.02 0-.046-.006-.067V9.338zM32.977 9.456v3.521c0 1.1-.388 1.1-1.918 1.1-1.443 0-2.08 0-2.08-1.1V8.601c0-1.592 1.285-.911 2.259-.522.923.368 1.739.522 1.739 1.377zm-1.953-.226c-.53-.158-.888-.25-.888.333v2.651c0 .855.439.768.918.768.332 0 .816.077.811-.435V9.952c.005-.62-.505-.624-.841-.722zM37.485 10.034c.551.609.424 2.19-.056 2.354.505.38.393 1.7.393 1.7h-1.081c0-1.316-.255-1.341-.888-1.336-.459-.01-.331 0-.867 0v1.336h-1.091v-4.99c1.51.322 3.295.608 3.59.936zm-2.488.445v1.162c.714.036.892.041 1.387.072.398 0 .306-.783.194-.927-.082-.123-.98-.24-1.581-.307zM2.846 15.357h47.359v11.025H2.846zM13.995 27.708a3.25 3.25 0 0 1-1.224 2.564c4.625 4.156 10.863 7.693 13.933 7.898 3.116-.205 9.185-3.977 13.826-7.929-.933-.829-1.198-1.53-1.203-2.533h.918c.081 1.202 1.351 2.175 1.881 2.4-6.808 5.646-11.118 8.404-15.483 8.983-4.54-.635-8.935-3.363-15.53-8.932.918-.41 1.847-1.366 1.841-2.457l1.04.006z" fill="#F60"/>
        <path d="M44.706 28.337a.358.358 0 0 1 0 .512.36.36 0 0 1-.513 0 .34.34 0 0 1-.103-.256.36.36 0 0 1 .616-.256zm.04-.036a.416.416 0 0 0-.59 0 .418.418 0 0 0 0 .589c.165.164.432.164.59 0a.422.422 0 0 0 .124-.297.38.38 0 0 0-.123-.292zm-.23.272c-.026.01-.051.01-.077.01h-.082v-.164h.072a.3.3 0 0 1 .097.015.082.082 0 0 1 .016.118c-.005.01-.016.015-.026.02zm-.23.25h.071v-.179h.062a.24.24 0 0 1 .087.016c.03.025.046.066.04.102v.061h.078v-.107a.122.122 0 0 0-.108-.118.254.254 0 0 0 .067-.02.11.11 0 0 0 .046-.092.117.117 0 0 0-.072-.118.256.256 0 0 0-.123-.015h-.164v.46l.015.01zM3.887 16.289h45.395v9.223H3.887z" fill="#000"/>
        <path d="M41.356 18.469v1.361h-1.035c0-.854 0-1.412-.408-1.387-.352 0-.29.41-.296.717 0 .911.47 1.08.944 1.433.632.476.851.783.856 2.13 0 .992-.331 1.755-1.407 1.755-1.265 0-1.438-.573-1.438-2.738h1.045v1.054c0 .184-.035.62.393.62.26 0 .357-.216.357-.83 0-.701-.204-.921-.439-1.095-.464-.353-1.346-.701-1.346-1.781 0-.978-.153-2.457 1.438-2.442.944.01 1.341.532 1.336 1.203zM6.314 20.097h.755v-2.652h1.035v6.966h-1.04V21.51h-.74v2.902h-1.05v-6.966h1.035c.005 0 .005 2.652.005 2.652zM16.147 23.25h1.035v1.161h-2.147v-6.966h1.107l.005 5.805zM19.564 18.546h-1.05v1.622h1.04v1.218h-1.04v1.853h1.035v1.172h-2.137v-6.966h2.147l.005 1.1zM20.768 17.445c.137.737.26 1.464.479 2.278.235-.819.296-1.495.525-2.273h1.025c-.285 1.47-.663 2.739-1.04 4.1v2.8h-1.046v-2.82c-.346-1.372-.744-2.708-1.025-4.08l1.082-.005zM31.82 17.389c.127 1.351.264 2.774.407 4.125 0 0 .332-2.907.495-4.125h1.03l-.964 6.966h-1.106l-.918-6.966h1.055zM35.002 24.355h-1.05V17.39h1.045zM46.273 17.389c.23 1.065.438 2.155.673 3.194l-.04-3.194h1.045v6.905h-1.224c-.235-1.3-.46-2.519-.714-3.824l.03 3.824h-1.101v-6.905h1.33zM44.539 18.71v4.468c0 .732-.704 1.361-1.428 1.351-.602-.01-1.352-.333-1.352-1.366v-4.48c0-1.34.852-1.463 1.444-1.468.545-.005 1.336.21 1.336 1.495zm-1.796.02v4.146c0 .599.73.763.73.102v-4.243c.01-.47-.724-.486-.73-.005zM26.8 17.445c.541 0 .914.384.919 1.198 0 1.48 0 3.27.01 4.53a1.209 1.209 0 0 1-1.173 1.238h-1.561v-6.966h1.806zm-.759 1.055v4.74h.372a.293.293 0 0 0 .255-.328v-.005c0-.855-.01-3.814-.01-4.08 0-.47-.617-.327-.617-.327zM37.103 17.389c.525 0 1.127.307 1.127 1.228v4.602c0 .747-.449 1.136-1.336 1.136h-1.438V17.39h1.647zm-.199 1.106h-.342v4.744c.612 0 .684-.025.689-.332v-4.029a.392.392 0 0 0-.347-.383zM13.505 17.445c1.01 0 1.127 1.193 1.127 1.925 0 .332.026.957-.52 1.505.342.307.52.552.525 1.31v2.237h-.683c-.122 0-.423-.103-.418-.307v-1.9c0-.43-.255-.475-.495-.475h-.184v2.671h-1.121l.015-6.966h1.754zm-.653 1.106v1.848h.408c.107 0 .23-.082.225-.359.01-.317 0-.798 0-1.1.005-.384-.225-.384-.633-.39zM31.06 24.35h-.98c-.117-.563-.163-1.11-.265-1.684h-.74l-.203 1.684h-.99c.204-2.303.597-4.668.826-6.966h1.49l.861 6.966zm-1.633-5.472-.23 2.488h.47a21.6 21.6 0 0 0-.24-2.488zM10.7 17.445c.27 2.252.51 4.515.76 6.966h-.964c-.081-.619-.163-1.269-.214-1.668h-.714l-.194 1.668h-.99c.24-2.293.49-4.586.71-6.966H10.7zm-.841 1.413-.123 2.513h.403c-.076-.88-.132-1.607-.28-2.513zM22.619 20.521h1.907v1h-1.907z" fill="#FFF"/>
        <path fill="#F60" d="M18.539 27.713h1.392l.694 1.914h.087l.846-1.914h1.387l-1.76 3.44v3.684l-1.274-.742v-2.927zM15.642 31.372l2.994 1.981v-1.418l-.041-.184-1.79-1.044-.087-.072a.236.236 0 0 1-.148-.194v-1.397a.23.23 0 0 1 .23-.22h1.341v-1.111h-1.923a.93.93 0 0 0-.948.91v2.023a.89.89 0 0 0 .372.726zM26.372 35.764l-1.218-.456-.46-.163a.416.416 0 0 1-.27-.38v-5.532a.412.412 0 0 1 .424-.404h1.524v-1.111h-2.315a.93.93 0 0 0-.948.91v6.542c0 .292.142.563.382.732.199.164.73.44 2.866 1.136v-1.264h.015v-.01zM28.305 27.713H27v9.254c1.05-.154 2.08-.45 3.055-.876v-1.207l-1.744.552-.006-7.723zM33.451 28.823v-1.11h-2.147a.93.93 0 0 0-.948.91v5.953c.025 1.26 1.147.712 1.213.666l1.903-1.177v-1.336l-1.382.778c-.536.307-.434-.39-.434-.39V31.49h1.372v-1.07h-1.372v-1.023l-.005-.18a.406.406 0 0 1 .413-.399h1.382v.005h.005zM35.609 28.823a.2.2 0 0 0-.204.195v.266a.203.203 0 0 0 .204.195h1.402a.707.707 0 0 1 .734.675v.978c-.086.568-3.62 2.523-3.62 2.523l-.01-1.326 1.488-.844c1.515-.86.368-.83.368-.83h-1.158a.666.666 0 0 1-.694-.65v-1.642c0-.359.342-.655.765-.655h2.77v1.11l-2.045.005z"/>
    </g>
</svg>
