<svg width="45" height="36" xmlns="http://www.w3.org/2000/svg">
    <g fill="red" fill-rule="nonzero">
        <path d="M7.214 29.816s-.278-.898-.766-1.384l-4.804-4.787C1.088 23.09 0 22.015 0 20.443c0-1.57 1.329-2.693 2.935-3.336C4.54 16.464 30.663 5.902 32.6 5.094c1.936-.808 4.721-2.05 5.982-2.648 1.261-.598 4.834-2.283 4.952-2.347.119-.063.182-.099.239-.099.056 0 .109.049.109.112 0 .064-.042.152-.055.195-.013.043-1.094 3.246-1.95 4.338-.855 1.092-1.276 1.556-5.374 2.992S5.037 18.648 4.346 18.917c-.69.27-2.252.748-2.252 1.9 0 .928.931 1.646 1.201 1.885.27.24 7.627 7.114 7.627 7.114H7.214z"/>
        <path d="M3.986 22.384s-.668-.617-.758-.707c-.09-.09-.286-.426-.286-.665 0-.24.045-.816 1.059-1.13 1.013-.314 24.665-8.07 25.956-8.475 1.292-.404 8.916-2.925 10.273-3.53.287-.124.338-.154.383-.154.045 0 .103.028.103.097 0 .07-.032.122-.056.161-.025.04-1.331 2.712-2.097 3.553-.765.842-1.452 1.437-2.848 1.784-1.396.348-23.16 6.183-23.302 6.222-.14.04-.304.168-.304.342 0 .286.237.309.237.309l-8.36 2.193zM4.47 22.81l1.925 1.785 9.987-1.874s-.259-.163-.259-.35c0-.189.152-.312.335-.349.183-.036 14.663-2.835 15.564-2.993.9-.157 2.086-.418 3.055-1.585.968-1.167 1.907-2.726 1.938-2.774.031-.047.042-.075.042-.103 0-.028-.016-.099-.09-.099-.073 0-.112.017-.185.045-.074.028-32.312 8.298-32.312 8.298zM32.787 20.185c-.04.01-25.934 4.844-25.934 4.844l2.245 2.068 11.976-1.504s-.225-.082-.225-.314c0-.232.221-.318.349-.34.127-.023 6.162-.905 6.872-1.01.709-.105 1.876-.348 2.86-1.38a56.846 56.846 0 0 0 1.989-2.222c.037-.045.043-.073.043-.095 0-.023-.028-.07-.085-.07-.015 0-.048.014-.09.023zM9.63 27.58l2.403 2.243h15.853l-5.93-3.68zM8.81 31.529c.067-.008.638-.09.638-.09v-.666H5.397v.666s.57.082.638.09c.068.007.368.075.368.411v.845H3.278v-.845c0-.336.3-.404.367-.411.068-.008.638-.09.638-.09v-.666H.233v.666s.57.082.638.09c.067.007.368.075.368.411v2.721c0 .337-.3.404-.368.412l-.638.07v.666h4.05v-.666l-.638-.07c-.067-.008-.367-.075-.367-.412v-.85h3.125v.85c0 .337-.3.404-.368.412l-.638.07v.666h4.05v-.666l-.637-.07c-.068-.008-.368-.075-.368-.412v-2.72c0-.337.3-.405.368-.412zM13.797 30.609c-2.613 0-4.136.944-4.136 2.695S11.184 36 13.797 36c2.612 0 4.135-.945 4.135-2.696 0-1.75-1.523-2.695-4.135-2.695zm0 4.46c-.51 0-1.794.016-1.794-1.765 0-1.78 1.283-1.765 1.794-1.765.51 0 1.794-.015 1.794 1.765 0 1.78-1.284 1.766-1.794 1.766zM23.851 31.45v-.684h3.254v.673s-.567.056-.676.07a.42.42 0 0 0-.352.432v3.874h-2.515c-.12 0-.294-.034-.396-.157-.101-.124-2.753-3.58-2.753-3.58v2.626c0 .196.194.328.338.348.144.02.687.088.687.088v.675-.675.675H18.18v-.673s.567-.056.677-.07a.42.42 0 0 0 .352-.432v-2.758c0-.196-.195-.328-.338-.348-.144-.02-.687-.078-.687-.078v-.69h3.54c.12 0 .294.033.395.157.101.123 2.753 3.58 2.753 3.58v-2.626c0-.197-.194-.329-.338-.348-.143-.02-.683-.079-.683-.079v-.684M32.69 30.766h-5.243v.69s.543.059.686.078c.144.02.338.152.338.348v2.758a.42.42 0 0 1-.352.432c-.11.014-.676.07-.676.07v.673h5.247c1.698 0 3.132-.786 3.132-2.547 0-1.762-1.616-2.502-3.132-2.502zm-.51 4.091h-1.742v-3.119h1.749c.645 0 1.29.217 1.29 1.534 0 1.316-.51 1.585-1.298 1.585z"/>
        <path d="M44.317 35.066c-.262-.028-.397-.278-.43-.328-.035-.05-2.393-3.638-2.486-3.773a.503.503 0 0 0-.375-.19h-3.915v.684l.934.092c.105.011.212.202.212.267 0 .064-.037.126-.06.165-.022.04-1.686 2.746-1.773 2.881a.464.464 0 0 1-.34.205c-.107.008-.662.058-.662.058v.688h3.228v-.666l-.653-.082c-.147-.026-.188-.19-.188-.232a.35.35 0 0 1 .064-.168l.244-.393h3.115l.26.393a.35.35 0 0 1 .064.168c0 .041-.041.206-.188.232l-.744.06v.688H45v-.666s-.421-.055-.683-.083zm-5.653-1.675.958-1.548 1.026 1.548h-1.984z"/>
    </g>
</svg>
