<svg width="49" height="25" xmlns="http://www.w3.org/2000/svg">
    <g fill-rule="nonzero" fill="none">
        <path d="M0 9.719v6.37h14.366V8.812h2.802c1.788 0 4.768.302 7.48.906 3.16.694 5.962 1.84 5.962 3.471 0 1.358-2.086 2.898-2.146 2.898H49s-.507-2.294-1.58-3.803c-.685-.996-1.55-1.871-2.86-2.565-1.134-.605-2.594-1.087-4.591-1.42v-.332c.924 0 3.398-.905 5.543-2.354C48.403 3.651 48.94 0 48.94 0H28.612s1.7 1.418 1.7 2.716c0 2.717-9.597 4.77-13.084 4.77h-2.861V0H0v9.719zM.124 21.833v-4.55H2.56v2.454l2.155-2.454h2.86l-2.719 2.853 1.085 1.698 1.93 3.01H4.94l-1.803-3.01-.577.613v2.397H.124v-3.01z" fill="#E52629"/>
        <path d="M8.477 21.833c1.154-.47 2.845-.2 2.845-.884 0-.4-.479-.443-.704-.443-.31 0-.705.057-.76.528H7.786c0-1.17.817-1.84 2.958-1.84 2.577 0 2.732.956 2.732 2.268v2.582c0 .314.014.47.296.699v.1h-2.24l-.098-.585c-.606.584-1.24.741-2.042.741-1.029 0-1.944-.513-1.944-1.654-.001-.84.45-1.269 1.028-1.512z" fill="#E52629"/>
        <path fill="#E52629" d="m14.055 21.833-.817-2.482h2.098l.606 2.482.225.913.24-.913.62-2.482h1.83l.606 2.482.225.913.226-.913.633-2.482h2.043l-.79 2.482-.943 3.01H18.76l-.79-3.01-.056-.214-.056.214-.719 3.01h-2.112zM22.984 21.833c1.14-.47 2.83-.2 2.83-.884 0-.4-.464-.443-.703-.443-.296 0-.705.057-.747.528h-2.085c0-1.17.832-1.84 2.972-1.84 2.564 0 2.719.956 2.719 2.268v2.582c0 .314.014.47.296.699v.1H26.04l-.113-.585c-.605.584-1.225.741-2.042.741-1.014 0-1.93-.513-1.93-1.654 0-.84.438-1.269 1.029-1.512zM28.576 21.833c-.155-.214-.24-.485-.24-.827 0-1.412 1.438-1.812 2.578-1.812 1.183 0 2.563.271 2.69 1.726h-1.958a.608.608 0 0 0-.211-.399.645.645 0 0 0-.437-.143c-.366 0-.605.129-.605.4 0 .542 1.704.442 2.704 1.055.423.257.719.643.719 1.256 0 1.141-.93 1.911-2.916 1.911-1.24 0-2.62-.385-2.732-1.868h2.056c0 .228.084.399.225.514.14.099.323.156.535.156.323 0 .676-.1.676-.485 0-.741-2.337-.37-3.084-1.484zM34.929 21.833c1.14-.47 2.83-.2 2.83-.884 0-.4-.479-.443-.703-.443-.297 0-.705.057-.76.528h-2.071c0-1.17.816-1.84 2.972-1.84 2.563 0 2.718.956 2.718 2.268v2.582c0 .314.014.47.296.699v.1h-2.24l-.098-.585c-.606.584-1.226.741-2.043.741-1.028 0-1.944-.513-1.944-1.654 0-.84.451-1.269 1.043-1.512zM40.337 21.833v-4.55h2.155v3.737l1.38-1.669h2.522l-2.014 2.126.24.357 2.042 3.01H44.07l-1.17-1.955-.408.414v1.54h-2.155v-3.01zM46.788 19.351v5.493h2.155V19.35zM46.788 17.083v1.555h2.155v-1.555z"/>
        <path d="M37.759 22.418c-.704.343-1.633.171-1.633.885 0 .271.253.456.676.456.76 0 1.014-.599.957-1.341zM25.815 22.418c-.704.343-1.634.171-1.634.885 0 .271.253.456.69.456.747 0 1-.599.944-1.341zM11.321 22.418c-.704.343-1.634.171-1.634.885 0 .271.254.456.677.456.76 0 1.014-.599.957-1.341z" fill="#FFF"/>
    </g>
</svg>
