<svg width="72" height="12" xmlns="http://www.w3.org/2000/svg">
    <g fill="none" fill-rule="evenodd">
        <path d="M25.716 9.77V2.396h2.148v2.16l3.06-2.16h3.2l-.003-.003.316.003h.132l2.28.016 1.773 2.257 1.771-2.257 2.73-.016-3.361 4.309v3.068h-2.268V6.695l-3.212-4.092-2.994 2.11 2.953 5.06h-2.868l-2.116-3.627-1.396.984v2.643l-2.145-.003zm17.466 0V2.396h3.12l1.558 4.417 1.557-4.417h3.253V9.77h-2.264V5.527L48.909 9.77h-2.094L45.45 5.9v3.87h-2.268zM67.32 2.214l.474.022.461.059.445.098.43.133.407.166.386.198.36.228.335.256.303.28.271.306.237.327.2.348.157.364.117.383.073.394.025.408-.025.407-.073.394-.117.383-.158.364-.199.348-.237.327-.271.305-.303.281-.335.256-.36.228-.386.198-.407.166-.43.133-.445.095-.461.059-.474.018-.474-.018-.46-.059-.446-.095-.43-.133-.407-.166-.385-.198-.36-.228-.332-.256-.303-.28-.272-.306-.237-.327-.199-.348-.158-.364-.117-.383-.072-.394-.025-.407.025-.408.072-.394.117-.383.158-.364.2-.348.236-.327.272-.305.303-.281.332-.256.36-.228.385-.198.407-.166.43-.133.445-.098.461-.06.474-.02zm0 2.067-.237.009-.23.03-.221.05-.212.065-.202.08-.19.096-.176.11-.165.124-.148.136-.133.145-.114.157-.094.163-.076.173-.057.179-.035.185-.012.191.012.191.035.186.057.178.076.173.094.167.114.157.133.145.148.136.165.123.176.11.19.097.202.08.212.064.22.047.231.028.237.009.237-.01.23-.027.222-.047.211-.064.202-.08.19-.096.177-.111.164-.123.149-.136.132-.145.114-.157.095-.164.075-.173.057-.178.035-.185.013-.192-.013-.19-.035-.186-.057-.179-.075-.173-.095-.163-.114-.157-.132-.145-.149-.136-.164-.123-.177-.111-.19-.096-.202-.08-.211-.065-.221-.05-.23-.03-.238-.012zm-9.437-2.067.4.016.39.043.378.068.367.095.353.12.342.143.325.163.306.185.288.207.268.225.247.24.224.26.199.274.17.287.146.302.19.509h-2.518l-.127-.176-.085-.105-.091-.099-.101-.092-.108-.086-.114-.084-.123-.077-.126-.068-.133-.061-.139-.056-.145-.046-.148-.04-.152-.031-.158-.025-.161-.015-.161-.006-.237.009-.23.03-.222.05-.211.065-.202.08-.193.096-.177.11-.164.124-.149.136-.132.145-.114.157-.095.163-.076.173-.056.18-.035.184-.013.191.013.192.035.185.056.178.076.173.095.167.114.157.132.145.149.136.164.123.177.111.19.096.202.08.211.065.221.046.23.028.238.009.167-.006.168-.016.16-.024.159-.034.151-.044.149-.052.142-.059.136-.067.129-.074.123-.08.117-.087.11-.092.102-.1.091-.104.086-.111.123-.188h2.492l-.177.512-.142.308-.17.296-.197.28-.22.266-.247.25-.269.231-.29.21-.31.191-.328.17-.344.148-.36.123-.373.099-.385.07-.395.044-.405.015-.473-.018-.461-.059-.446-.095-.43-.133-.407-.166-.385-.198-.36-.228-.332-.256-.303-.28-.272-.306-.237-.327-.199-.348-.157-.364-.117-.383-.073-.394-.025-.408.025-.407.073-.394.117-.383.157-.364.2-.348.236-.327.272-.305.303-.281.332-.256.36-.228.385-.198.408-.166.43-.133.445-.099.46-.058.48-.019zM11.24 0l.575.01.565.02.56.038.549.052.54.065.53.08.518.093.509.105.496.12.483.13.47.141.455.154.44.167.423.176.407.188.392.197.373.207.353.216.335.225.316.234.294.244.274.25.253.259.228.265.205.275.18.28.155.287.13.293.1.3.073.304.044.312.016.315-.016.314-.044.312-.073.305-.1.3-.13.292-.155.287-.18.28-.205.275-.228.268-.253.26-.274.25-.294.24-.316.234-.335.225-.353.216-.373.207-.392.197-.407.188-.423.176-.44.167-.454.154-.47.142-.484.13-.496.12-.509.104-.518.093-.53.08-.54.065-.55.052-.559.037-.565.022-.575.006-.572-.006-.565-.022-.56-.037-.549-.052-.54-.065-.53-.08-.518-.093-.509-.105-.496-.12-.483-.13-.47-.141-.455-.154-.44-.167-.423-.176-.407-.188-.392-.197-.373-.207-.353-.216-.335-.225-.316-.234-.294-.24-.274-.25-.253-.26-.23-.268-.206-.274-.18-.281-.155-.287-.13-.293-.1-.3-.073-.304-.044-.312L0 6.002l.016-.315.044-.312.073-.305.1-.299.13-.293.155-.287.18-.28.205-.275.23-.265.254-.26.274-.249.294-.244.316-.234.335-.225.353-.216.373-.207.392-.197.407-.185.423-.176.44-.166.454-.155.47-.142.484-.129.496-.12.509-.105.518-.093.53-.08.54-.065.55-.052.559-.037.565-.022.572-.012zm4.2 2.079.203.024.199.028.196.03.192.035.193.037.19.04.186.046.183.05.183.052.18.055.177.06.174.06.17.066.168.067.164.071.161.071.158.074.152.077.148.08.145.084.142.086.14.09.132.089.13.093.126.095.464.373-.031-.034-.212-.206-.234-.2-.252-.195-.272-.188-.287-.182-.307-.176-.322-.17-.338-.16-.354-.154-.37-.145-.385-.136-.398-.126-.41-.117-.423-.108-.436-.099-.446-.086-.454-.077-.465-.065-.473-.056-.484-.043-.492-.03-.5-.02-.505-.005-.505.006-.5.018-.489.031-.483.043-.474.056-.467.065-.455.077-.445.086-.436.099-.423.108-.411.117-.398.126-.385.136-.37.145-.354.154-.338.16-.322.17-.306.176-.288.182-.271.188-.253.194-.234.2-.211.207-.193.21-.17.216-.149.219-.126.222-.104.225-.083.228-.06.232-.037.234-.013.238.013.23.034.23.057.224.08.222.1.22.12.215.142.213.161.21.184.206.202.2.22.198.24.191.257.185.275.18.29.172.082.043V3.306l.26-.142.189-.098.196-.096.202-.093.208-.089.212-.086.218-.084.224-.08.23-.077.234-.074.24-.07.243-.069.25-.064.256-.062.259-.059.445-.092v2.658l.098-.139.123-.157.133-.154.142-.151.152-.145.16-.142.171-.136.177-.132.187-.13.192-.123.202-.117.209-.111.215-.108.224-.102.23-.096.237-.09.243-.086.247-.08.252-.074.26-.068.265-.061.268-.053.272-.046.278-.04.28-.034.285-.025.29-.018.294-.013.294-.003.212.003.208.007.209.009.205.012.205.019.206.034zm5.06 2.44-1.108-.642-.183-.096-.19-.09-.196-.086-.205-.08-.212-.074-.214-.068-.221-.061-.228-.056-.234-.05-.236-.04-.244-.033-.246-.028-.25-.019-.252-.012-.26-.003-.264.003-.26.012-.255.022-.253.028-.246.037-.244.043-.236.05-.234.058-.228.065-.22.07-.215.078-.209.083-.199.09-.193.095-.183.102-.177.105-.167.11-.158.115-.148.12-.14.123-.129.13-.12.133-.11.135-.101.139-.089.142-.079.145-.066.145-.054.148-.044.15-.032.155-.019.154-.006.158.006.157.02.154.03.154.045.151.054.148.066.145.08.145.088.142.1.139.111.136.12.132.13.13.139.123.148.12.158.115.167.11.177.105.183.102.193.096.2.09.208.083.214.077.221.07.228.065.234.059.236.05.244.042.246.037.253.028.256.022.259.012.265.003.265-.003.26-.012.255-.022.253-.028.25-.037.242-.043.237-.052.234-.059.227-.065.221-.07.215-.078.209-.083.199-.09.192-.095.184-.102.167-.101.155-.13.151-.139.142-.142.133-.145.123-.144.114-.149.104-.15.092-.152.082-.154.073-.154.06-.157.05-.158.041-.157.029-.16.015-.16.007-.164-.013-.238-.038-.234-.06-.231-.082-.229-.104-.225-.127-.222-.079-.114zM13.61 10.58l-.29-.018-.285-.028-.281-.034-.278-.04-.275-.046-.268-.056-.266-.058-.259-.068-.252-.074-.247-.08-.243-.084-.237-.092-.23-.096-.225-.102-.214-.107-.209-.111-.202-.118-.193-.123-.186-.126-.177-.133-.17-.136-.162-.142-.151-.145-.142-.15-.133-.155-.123-.157-.098-.139v2.504l.085.016.212.037.212.034.214.03.218.031.218.028.221.025.221.021.225.019.224.018.227.016.23.012.231.01.23.005.235.004h.404l.167-.004.168-.003.167-.006.168-.006.164-.01.164-.008.164-.013.164-.012.162-.012.16-.016.162-.015.158-.019.158-.018.158-.019.154-.021.07-.01h-.319z" fill="#FFF"/>
        <path d="M25.868 9.62V2.543h1.838v2.301l3.266-2.3h3.123L31.09 4.665l2.89 4.953h-2.515l-2.157-3.698-1.598 1.13v2.568h-1.841zm11.78 0V6.64l-3.215-4.096 2.34.016 1.849 2.356 1.847-2.356 2.34-.016-3.199 4.108V9.62H37.65zm5.686 0V2.543h2.858l1.665 4.728 1.664-4.728h2.988V9.62h-1.958V4.626l-1.76 4.99h-1.875l-1.627-4.617v4.617l-1.955.003zm23.985-7.258c2.492 0 4.526 1.712 4.526 3.812 0 2.1-2.034 3.815-4.526 3.815s-4.526-1.711-4.526-3.815c0-2.097 2.034-3.812 4.526-3.812zm0 1.768c1.352 0 2.457.919 2.457 2.044 0 1.129-1.105 2.048-2.457 2.048-1.352 0-2.457-.919-2.457-2.048 0-1.125 1.105-2.044 2.457-2.044zm-9.437-1.768c2.09 0 3.856 1.206 4.371 2.835h-2.217c-.417-.636-1.229-1.067-2.154-1.067-1.352 0-2.458.919-2.458 2.044 0 1.129 1.106 2.048 2.458 2.048.963 0 1.797-.466 2.201-1.141h2.195c-.486 1.665-2.274 2.905-4.393 2.905-2.492 0-4.526-1.712-4.526-3.815 0-2.094 2.03-3.809 4.523-3.809z" fill="#1E71B8"/>
        <path d="M11.24.148c6.106 0 11.087 2.63 11.087 5.857 0 3.226-4.98 5.856-11.086 5.856-6.105 0-11.086-2.63-11.086-5.856C.158 2.779 5.135.148 11.24.148zm2.957 2.01c2.233 0 4.217.667 5.455 1.69-.941-.57-2.22-.921-3.63-.921-2.883 0-5.236 1.48-5.236 3.294 0 1.813 2.353 3.293 5.237 3.293 1.443 0 2.754-.37 3.702-.968.906-.743 1.43-1.613 1.43-2.541 0-2.711-4.45-4.923-9.908-4.923-5.458 0-9.908 2.212-9.908 4.923 0 1.32 1.052 2.52 2.764 3.404V3.408c.938-.537 2.16-.965 3.56-1.24v3.063c.77-1.768 3.41-3.072 6.534-3.072zm2.034 8.096c-.67.13-1.352.195-2.034.192-3.123 0-5.764-1.305-6.54-3.072v3.217c1.114.215 2.32.336 3.587.336 1.816.003 3.522-.244 4.987-.673z" fill="#CC2229"/>
    </g>
</svg>
