<svg width="36" height="39" xmlns="http://www.w3.org/2000/svg">
    <g fill-rule="nonzero" fill="none">
        <path d="M.133 1.533C5.396.633 10.682.12 16.01.018c6.602-.124 13.156.4 19.667 1.511.011.072.027.129.027.185.08 2.24.144 4.474.106 6.713-.038 2.307-.182 4.606-.514 6.894-.43 2.967-1.149 5.854-2.34 8.617-2.352 5.447-6.097 9.733-11.086 12.967a29.544 29.544 0 0 1-3.752 2.043.422.422 0 0 1-.407 0C9.772 35.186 4.38 29.223 1.746 20.866 1.164 19.02.784 17.127.51 15.208c-.411-2.876-.533-5.77-.507-8.673C.02 4.955.076 3.38.11 1.801c.004-.08.011-.166.023-.268zm.727.731c0 .147.004.25 0 .355-.02.776-.042 1.549-.065 2.325-.076 2.624-.05 5.244.171 7.86a42.18 42.18 0 0 0 .769 5.25c.575 2.68 1.446 5.258 2.748 7.682 3.002 5.579 7.447 9.653 13.186 12.375.179.083.32.068.49-.011a28.394 28.394 0 0 0 4.046-2.288c4.243-2.899 7.528-6.612 9.712-11.252 1.366-2.902 2.173-5.963 2.63-9.125.316-2.19.48-4.395.49-6.608.012-1.798-.03-3.596-.053-5.398-.003-.38-.03-.761-.045-1.165a100.19 100.19 0 0 0-34.08 0z" fill="#000"/>
        <path d="M.86 2.264A100.434 100.434 0 0 1 18.3.802 100.19 100.19 0 0 1 34.94 2.261c.015.403.042.784.045 1.164.023 1.798.061 3.596.054 5.398a47.993 47.993 0 0 1-.491 6.608c-.457 3.158-1.264 6.223-2.63 9.125-2.18 4.644-5.469 8.353-9.712 11.252a28.034 28.034 0 0 1-4.045 2.288.526.526 0 0 1-.491.011C11.93 35.386 7.481 31.315 4.483 25.732 3.18 23.31 2.31 20.73 1.735 18.05a42.077 42.077 0 0 1-.769-5.25C.742 10.184.72 7.564.796 4.94c.022-.776.04-1.548.064-2.325.004-.102 0-.207 0-.35zm33.443.558A99.749 99.749 0 0 0 1.526 2.82c-.008.116-.015.21-.02.305-.022.946-.053 1.892-.064 2.842-.03 2.382-.008 4.764.22 7.14.172 1.77.43 3.531.83 5.265.533 2.31 1.29 4.546 2.383 6.66 2.858 5.534 7.166 9.6 12.783 12.334.186.09.327.082.51-.004a28.258 28.258 0 0 0 7.698-5.398c3.437-3.389 5.762-7.422 7.063-12.043.963-3.411 1.348-6.905 1.435-10.433.034-1.357.015-2.718.008-4.075-.012-.848-.046-1.7-.069-2.59z" fill="#FFF"/>
        <path d="M34.303 2.822c.023.89.057 1.742.065 2.59.011 1.357.027 2.718-.008 4.075-.087 3.528-.475 7.022-1.434 10.433-1.302 4.621-3.627 8.654-7.064 12.043a28.142 28.142 0 0 1-7.698 5.398.522.522 0 0 1-.51.004C12.037 34.632 7.729 30.568 4.87 25.03c-1.092-2.114-1.85-4.35-2.382-6.66a41.078 41.078 0 0 1-.83-5.266c-.228-2.375-.255-4.757-.22-7.139.01-.946.041-1.892.064-2.842.004-.094.011-.189.019-.305a99.772 99.772 0 0 1 32.781.003zM19.705 32.246c.21-.366.392-.679.563-1a2.6 2.6 0 0 1 .655-.794c1.556-1.27 3.109-2.548 4.673-3.815.22-.177.365-.373.434-.648.281-1.146.464-2.307.54-3.483a16.75 16.75 0 0 0-.06-2.865 1.204 1.204 0 0 0-.221-.58c-.819-1.176-1.75-2.262-2.74-3.299a.736.736 0 0 0-.446-.23c.012.091.016.166.03.238.183.84.37 1.681.545 2.525.042.208.137.37.29.517.49.479.943.984 1.339 1.545.182.26.289.543.304.856.08 1.481.069 2.963-.095 4.44-.034.298-.16.505-.388.698a479.257 479.257 0 0 0-4.209 3.603c-.358.31-.7.633-.906 1.07-.007.016-.03.02-.053.03-.251-.655-.392-1.311-.179-2.016.236-.788.445-1.583.662-2.375.03-.109.054-.218.08-.324l-.057-.022c-.042.079-.087.158-.122.24-.277.634-.56 1.26-.825 1.897-.19.46-.358.927-.54 1.39a.895.895 0 0 0 .01.72c.202.464.385.94.579 1.407.034.075.072.147.137.275zm-4.32-15.873c-.034.004-.068.004-.102.008.011.226.019.448.042.674.03.306.068.607.103.913a.92.92 0 0 1-.145.629c-.145.226-.274.46-.423.686a48.759 48.759 0 0 1-3.558 4.67c-.194.226-.327.468-.361.765-.054.532-.114 1.063-.175 1.595a.953.953 0 0 0 .156.656c.186.279.361.565.563.833a43.83 43.83 0 0 0 3.463 4.086c.388.407.803.772 1.332.987.167.068.327.162.49.242.054.026.111.037.168.052a.642.642 0 0 1 .035-.052c-.103-.095-.19-.208-.309-.28a4.411 4.411 0 0 1-1.069-.912 46.182 46.182 0 0 1-3.307-4.135c-.217-.305-.407-.625-.605-.942a.938.938 0 0 1-.149-.603c.042-.38.08-.761.13-1.138.026-.208.137-.37.293-.513.346-.32.689-.64 1.02-.976.959-.965.746-.615 1.366-1.926.48-1.01.917-2.043 1.374-3.065.076-.17.137-.343.091-.528-.133-.58-.282-1.153-.422-1.726zm1.953-6.325c.004.027.004.053.008.083.152.004.3.019.452.011.88-.03 1.755-.06 2.634-.101.316-.015.613.03.902.158.437.2.875.403 1.32.588.175.072.366.124.552.147.365.041.735.038 1.096.083.217.026.445.075.632.177.772.43 1.537.882 2.298 1.33.168.099.328.174.594.151-.563-.531-1.084-1.025-1.606-1.519-.034-.034-.08-.056-.122-.079-1.217-.682-2.439-1.357-3.714-1.933a2.299 2.299 0 0 0-.864-.204c-.59-.023-1.176-.057-1.766-.08-1.651-.06-3.299-.01-4.947.11-.285.023-.472.132-.597.373-.172.332-.426.585-.712.818-.548.453-1.1.905-1.709 1.278-.125.075-.25.158-.308.35.278-.154.521-.29.765-.422 1.028-.55 2.055-1.096 3.083-1.647.266-.143.548-.226.856-.233.483-.012.963-.06 1.446-.065 1.218-.015 2.432-.022 3.65-.026.209 0 .403.057.574.177-1.518.14-3.021.264-4.517.475zM7.059 16.294c-.019.32-.087.6-.312.825-.206.204-.392.426-.578.645-.134.155-.145.226-.023.38.236.302.483.596.734.887.061.071.168.105.274.17.08-.351.156-.657.217-.966.042-.2.145-.313.358-.35.56-.102 1.115-.223 1.674-.328.335-.064.674-.12 1.05-.189-.087-.105-.144-.18-.209-.249-.201-.207-.414-.403-.601-.621a1.02 1.02 0 0 0-.86-.385c-.206.004-.415-.034-.624-.053-.008-.019-.015-.037-.02-.056.073-.053.142-.113.218-.159.057-.034.125-.045.19-.067l2.923-1.097c.308-.113.517-.328.67-.61a.164.164 0 0 0-.107.033c-.343.31-.757.445-1.203.524-.14.026-.281.068-.422.102a.756.756 0 0 1-.506-.027.59.59 0 0 0-.305-.022c-.209.034-.414.094-.62.14-.057.01-.114.014-.224.026.175-.178.312-.302.502-.366.202-.068.396-.155.597-.222.153-.053.244-.129.252-.302.007-.181.06-.358.08-.539a.42.42 0 0 1 .182-.31c.24-.176.476-.357.712-.542.068-.053.148-.098.167-.234-.358.211-.673.415-1.004.588a3.811 3.811 0 0 0-1.428 1.27c-.102.155-.258.283-.407.396-.696.532-1.4 1.052-2.097 1.584-.198.15-.376.331-.544.516-.198.219-.148.471.126.652.133-.094.274-.196.415-.294.213-.15.422-.298.532-.55.038-.083.145-.136.221-.2zm14.99-3.359c.388.042.712.098 1.047-.018.25-.09.529-.117.784-.196.308-.095.563-.027.81.17.579.463 1.157.927 1.743 1.379.18.14.385.252.594.35.384.178.78.336 1.168.502a.6.6 0 0 1 .385.467c.015.075.041.147.053.222.114.796.224 1.591.346 2.386.076.49-.011.95-.24 1.388-.293.557-.582 1.123-.882 1.677-.069.124-.156.256-.27.328-.366.222-.526.528-.492.946.012.155-.015.31-.022.464a.729.729 0 0 0 .228-.211c.803-1.071 1.457-2.232 2.047-3.43a.905.905 0 0 0 .095-.328c.13-1.425.1-2.846-.163-4.26a.68.68 0 0 0-.297-.467 26.809 26.809 0 0 0-3.946-2.288c-.282-.132-.548-.151-.834-.027-.647.28-1.294.55-1.94.826-.062.022-.115.06-.214.12zM18.43 33.403c.015-.298-.019-.577-.152-.844a9.123 9.123 0 0 1-.35-.818c-.339-.863-.678-1.73-1.001-2.601a1.432 1.432 0 0 1-.091-.618c.053-.58.118-1.161.228-1.734.293-1.53.616-3.057.925-4.584.068-.346-.069-.663-.141-.991a.897.897 0 0 0-.13.234c-.178.463-.361.927-.532 1.394-.53 1.448-1.028 2.906-1.424 4.395-.11.411-.08.777.092 1.165.73 1.659 1.571 3.26 2.466 4.84.034.056.076.11.11.162zm-7.855-20.011.023.067c.21 0 .419.012.624-.003.468-.034.948 0 1.405-.14.59-.177 1.18-.354 1.765-.546a.62.62 0 0 0 .316-.227c.316-.512.617-1.036.917-1.556.012-.023.012-.053.023-.113-.418-.015-.833-.072-1.225.083a40.86 40.86 0 0 0-1.964.836c-.16.072-.297.208-.418.336a6.64 6.64 0 0 0-.53.644 1.262 1.262 0 0 1-.654.49c-.103.03-.19.087-.282.129zm.05 4.444a1.788 1.788 0 0 0-.012.06c.084.034.172.072.255.102.465.166.929.328 1.39.497.357.132.471.422.296.754-.32.592-.692 1.15-1.122 1.67a.794.794 0 0 1-.316.234c-.415.15-.841.275-1.264.418a.342.342 0 0 1-.369-.075c-.137-.121-.278-.242-.415-.358-.045-.038-.102-.072-.178-.125-.03.366-.069.686.076 1.014.137.302.213.633.304.954.076.267.126.539.194.81.05.189.107.234.29.192a5.83 5.83 0 0 0 .833-.237c.14-.057.251-.189.373-.29a.315.315 0 0 0-.213-.023c-.225.05-.45.11-.678.147-.201.038-.236.008-.278-.188a22.026 22.026 0 0 1-.152-.848c-.045-.257-.03-.276.236-.366.582-.2 1.168-.4 1.755-.592.152-.049.285-.117.365-.26.43-.75.86-1.496 1.282-2.246.038-.068.069-.178.042-.246-.095-.24-.213-.47-.51-.539-.609-.143-1.218-.301-1.826-.444-.118-.023-.24-.012-.358-.015zm9.609-1.176c-.015-.095-.023-.151-.034-.204-.118-.562-.236-1.123-.358-1.681-.046-.215-.057-.41.107-.592.102-.113.175-.249.258-.38.472-.758.468-.536.255-1.516-.007-.038-.015-.075-.03-.11-.023-.04-.05-.09-.088-.108-.236-.125-.464-.257-.76-.193-.792.17-1.588.313-2.383.471-.339.068-.521.283-.57.656.167.03.338.053.505.095.244.064.468.026.7-.072.488-.204.99-.373 1.48-.577a.646.646 0 0 1 .53.015c.289.12.415.536.232.784-.213.294-.434.585-.662.871a.386.386 0 0 0-.076.396c.186.573.361 1.15.536 1.722.054.174.149.302.358.423zm-9.18-10.52c-.882.06-1.734.12-2.59.177v-.619l2.298-.177v-.384c-.773.056-1.526.109-2.295.162v-.566l2.58-.192c.008-.079.016-.136.016-.192 0-.053-.008-.11-.02-.2-1.016.076-2.009.15-3.002.226v2.371c1.016-.075 2.013-.15 3.01-.226.004-.132.004-.234.004-.38zm8.065-.2c-.712 0-1.39.003-2.063-.004-.213 0-.293-.087-.297-.302-.007-.298-.003-.592 0-.89 0-.35.046-.399.4-.403.636-.003 1.275 0 1.91.004h.316v-.373c-.064-.008-.11-.015-.156-.015-.696-.004-1.389-.008-2.085-.004-.107 0-.213.015-.316.038-.293.06-.457.21-.472.501-.023.449-.019.901 0 1.35.011.267.171.41.438.456.122.022.25.03.373.034.704.007 1.408.007 2.116.01.083 0 .167-.01.27-.018.011-.471.019-.923-.004-1.38h-1.64v.381h1.206c.004.211.004.4.004.615zm1.888-1.553c.882.03 1.739.064 2.606.094v-.377c-1.012-.05-2.009-.106-3.033-.11 0 .807-.004 1.576 0 2.356 1.04.038 2.036.076 3.052.117-.007-.15-.011-.26-.019-.388-.886-.038-1.743-.072-2.606-.105v-.589h1.168c.38.004.76.068 1.138.034v-.373c-.78-.03-1.538-.06-2.31-.094.004-.188.004-.354.004-.565zm6.933 1.202s.004 0 0 0V4.99c-.015-.313-.152-.494-.456-.588a1.204 1.204 0 0 0-.282-.057c-.586-.045-1.172-.09-1.758-.132a1.761 1.761 0 0 0-.316.008c-.308.03-.464.17-.476.47-.019.438-.019.88.004 1.32.011.298.164.449.457.517.13.03.266.045.4.056.422.034.844.068 1.267.094.232.015.464.03.692.02.3-.016.457-.178.468-.476.008-.21 0-.422 0-.633zm-23.594.822c.548-.06 1.058-.117 1.564-.177.24-.03.48-.057.711-.106.233-.049.411-.2.442-.441.03-.245.03-.494.004-.739-.023-.222-.18-.354-.404-.388a1.268 1.268 0 0 0-.316-.011c-.468.045-.94.094-1.408.147-.33.037-.662.083-.997.128v2.36c.137-.016.259-.03.404-.05v-.723zm8.163-2.318-.43.022v.332c0 .44-.004.882 0 1.32.007.485.17.648.67.663h.056c.617-.023 1.237-.038 1.854-.076.498-.03.658-.207.662-.712.004-.468 0-.939 0-1.406 0-.076-.008-.147-.015-.234h-.4c-.004.106-.015.2-.015.294 0 .46.004.92-.004 1.38-.004.233-.05.29-.29.301a98.18 98.18 0 0 1-1.822.072c-.213.007-.266-.053-.27-.279-.004-.238 0-.479 0-.716.004-.302.004-.607.004-.961zm19.37.723-3.166-.35v.388c.456.053.902.102 1.377.155v1.963c.153.02.274.038.434.057V5.058c.472.049.91.094 1.355.143v-.385zm-19.918 14.86-.065-.065c-.636.52-1.275 1.04-1.91 1.56.007.02.019.034.026.053.343-.117.685-.233 1.024-.358a.325.325 0 0 0 .133-.105c.266-.358.529-.72.792-1.086zm-3.737-.8c-.35.087-.61.215-.762.509l.571.648c.027-.094.046-.147.054-.2.045-.301.087-.599.137-.957zm2.526-5.096c-.007.2-.015.365-.022.535.574-.06.666-.162.513-.562l-.49.027z" fill="#000"/>
        <path d="M19.705 32.246a7.755 7.755 0 0 1-.137-.28c-.194-.467-.377-.941-.578-1.405a.895.895 0 0 1-.012-.72c.183-.464.346-.931.54-1.39.267-.638.549-1.267.826-1.897.038-.083.08-.162.122-.241l.057.022c-.026.11-.05.22-.08.325-.22.791-.426 1.59-.662 2.374-.213.701-.068 1.361.179 2.017.019-.011.046-.015.053-.03.206-.437.548-.762.906-1.07 1.4-1.207 2.8-2.41 4.209-3.604.228-.192.354-.4.388-.698.164-1.477.175-2.958.095-4.44a1.632 1.632 0 0 0-.304-.855 10.826 10.826 0 0 0-1.34-1.546 1.003 1.003 0 0 1-.289-.516c-.175-.845-.362-1.681-.544-2.526-.015-.071-.02-.147-.03-.237.19.03.327.11.445.23.99 1.036 1.921 2.122 2.74 3.298.121.177.198.362.22.58.103.954.122 1.908.061 2.865a19.622 19.622 0 0 1-.54 3.483c-.069.279-.213.471-.434.648-1.564 1.263-3.117 2.54-4.673 3.815-.27.222-.487.486-.655.795-.171.324-.354.637-.563 1.003zM15.386 16.373c.144.573.289 1.146.426 1.723.046.184-.015.358-.091.527-.457 1.022-.895 2.055-1.374 3.065-.62 1.312-.407.961-1.366 1.926-.332.335-.674.656-1.02.976-.156.144-.267.306-.293.513-.05.38-.088.758-.13 1.138a.938.938 0 0 0 .149.603c.198.317.388.637.605.943a45.652 45.652 0 0 0 3.307 4.135c.316.354.658.67 1.07.912.117.068.205.185.307.279a.642.642 0 0 1-.034.053c-.057-.02-.114-.03-.167-.053-.164-.08-.324-.174-.491-.241-.53-.22-.944-.585-1.332-.988a43.44 43.44 0 0 1-3.463-4.086c-.202-.268-.377-.554-.563-.833a.974.974 0 0 1-.157-.656c.061-.531.122-1.063.176-1.594.03-.298.163-.54.361-.766a50.002 50.002 0 0 0 3.554-4.67c.149-.222.278-.46.423-.686a.926.926 0 0 0 .145-.63c-.035-.305-.077-.606-.103-.911-.023-.223-.027-.449-.042-.675.034 0 .068-.004.103-.004zM17.338 10.048c1.496-.21 2.999-.335 4.51-.463a.934.934 0 0 0-.575-.178 294.49 294.49 0 0 0-3.65.027c-.483.007-.962.056-1.446.064a1.89 1.89 0 0 0-.856.234c-1.028.55-2.055 1.096-3.083 1.647-.243.132-.487.267-.764.422.057-.196.182-.275.308-.35.609-.374 1.16-.822 1.708-1.278.286-.234.545-.49.712-.818.126-.242.308-.35.598-.374a44.219 44.219 0 0 1 4.947-.109c.59.023 1.176.053 1.766.08.304.01.59.078.864.203 1.274.577 2.496 1.251 3.714 1.934.042.022.087.045.122.079l1.605 1.519c-.262.022-.426-.053-.593-.151-.761-.452-1.522-.9-2.299-1.33a1.79 1.79 0 0 0-.631-.178c-.362-.045-.735-.041-1.096-.083a2.026 2.026 0 0 1-.552-.147 34.294 34.294 0 0 1-1.32-.588 1.899 1.899 0 0 0-.903-.158c-.879.041-1.754.072-2.633.102-.149.003-.3-.008-.453-.012a.385.385 0 0 0 0-.094zM7.059 16.294c-.072.064-.179.117-.217.2-.11.252-.323.4-.533.55-.14.102-.281.2-.414.294-.274-.185-.324-.433-.126-.652.167-.185.346-.362.544-.516.693-.536 1.4-1.052 2.097-1.584.152-.116.304-.245.407-.395.37-.547.845-.962 1.427-1.27.331-.174.647-.378 1.005-.589-.015.136-.099.185-.167.234-.236.181-.472.366-.712.543a.409.409 0 0 0-.183.309c-.019.18-.068.358-.08.539-.007.173-.099.253-.25.302-.203.067-.397.154-.598.222-.19.064-.331.188-.503.366.107-.012.168-.012.225-.027.205-.045.41-.105.62-.14a.553.553 0 0 1 .305.023.756.756 0 0 0 .506.027c.14-.034.281-.076.422-.102.442-.083.86-.215 1.203-.524a.157.157 0 0 1 .106-.034c-.152.279-.361.494-.67.61l-2.922 1.098c-.065.022-.133.037-.19.067-.077.046-.145.106-.217.159a.33.33 0 0 1 .019.056c.209.02.414.057.624.053a1.03 1.03 0 0 1 .86.385c.186.218.403.414.601.621.065.068.122.144.21.25-.377.067-.716.124-1.05.188-.56.109-1.116.23-1.675.328-.213.037-.316.15-.358.35-.065.31-.137.615-.217.965-.107-.064-.21-.098-.274-.17a20.19 20.19 0 0 1-.734-.885c-.122-.155-.11-.226.022-.381.187-.219.373-.441.579-.645.217-.226.285-.505.308-.825z" fill="#FFF"/>
        <path d="M22.05 12.935c.102-.06.151-.098.209-.12.646-.275 1.297-.547 1.94-.826.286-.124.552-.105.834.027a26.477 26.477 0 0 1 3.946 2.288c.171.12.259.267.297.467.263 1.414.293 2.835.164 4.26a.986.986 0 0 1-.095.327c-.587 1.2-1.241 2.356-2.048 3.43a.729.729 0 0 1-.228.212c.007-.155.034-.31.023-.464-.035-.422.125-.727.49-.946a.852.852 0 0 0 .27-.328c.301-.558.59-1.12.884-1.677.228-.438.316-.898.24-1.388-.122-.795-.229-1.59-.347-2.386-.011-.075-.038-.147-.053-.222a.607.607 0 0 0-.385-.467c-.392-.166-.784-.32-1.168-.502a3.358 3.358 0 0 1-.594-.35 77.44 77.44 0 0 1-1.742-1.38c-.244-.196-.503-.26-.811-.17-.259.08-.533.106-.784.197-.331.116-.655.06-1.043.018zM18.43 33.403c-.038-.053-.08-.106-.11-.162-.895-1.576-1.74-3.178-2.466-4.84a1.665 1.665 0 0 1-.092-1.165c.396-1.492.895-2.947 1.424-4.395.17-.467.354-.93.532-1.394a.897.897 0 0 1 .13-.234c.076.328.213.645.14.991-.308 1.527-.627 3.053-.924 4.584-.11.573-.171 1.153-.228 1.734-.02.203.019.426.09.618.32.87.663 1.734 1.002 2.6.106.276.22.555.35.819.133.264.171.546.152.844zM10.575 13.392c.092-.046.183-.102.278-.132.278-.087.484-.257.655-.49a6.64 6.64 0 0 1 .529-.645c.122-.128.262-.264.418-.335a40.86 40.86 0 0 1 1.964-.837c.392-.155.807-.098 1.225-.083-.011.06-.007.094-.022.113-.305.52-.602 1.048-.918 1.557a.605.605 0 0 1-.315.226c-.586.192-1.176.37-1.766.546-.46.14-.936.102-1.404.14-.206.015-.415.004-.625.004-.007-.02-.011-.042-.019-.064zM10.625 17.836c.118.003.24-.008.35.018.609.144 1.218.302 1.827.445.297.072.414.298.51.54.026.067-.004.173-.042.244-.423.75-.853 1.5-1.283 2.247-.08.143-.217.21-.365.26-.586.196-1.168.396-1.754.592-.267.09-.278.109-.236.365.05.283.099.566.152.848.038.196.076.223.278.189.228-.042.453-.102.677-.147a.338.338 0 0 1 .213.022c-.125.098-.232.234-.373.29a5.691 5.691 0 0 1-.833.238c-.183.042-.24-.004-.29-.192-.068-.268-.121-.543-.194-.81-.09-.32-.167-.653-.304-.954-.148-.328-.107-.648-.076-1.014.076.053.133.083.179.124.14.117.281.234.415.358.11.098.224.125.369.076.418-.143.845-.268 1.263-.419a.803.803 0 0 0 .316-.233c.43-.52.803-1.078 1.123-1.67.175-.328.06-.622-.297-.754-.46-.17-.925-.332-1.39-.498-.087-.03-.17-.067-.254-.101.011-.027.015-.046.019-.064zM20.234 16.66c-.21-.121-.304-.253-.358-.426-.175-.577-.354-1.15-.536-1.723a.386.386 0 0 1 .076-.396c.228-.286.449-.576.662-.87.183-.25.053-.664-.232-.784a.66.66 0 0 0-.53-.016c-.49.2-.992.374-1.48.577a1.07 1.07 0 0 1-.7.072c-.167-.042-.338-.064-.506-.094.05-.374.232-.588.57-.656.792-.159 1.592-.306 2.383-.471.297-.065.525.067.761.192.038.019.065.068.088.11.019.033.023.07.03.108.213.98.217.758-.255 1.516-.08.132-.156.267-.258.38-.164.181-.153.377-.107.592.122.562.24 1.12.358 1.681.011.057.019.113.034.208zM11.055 6.14v.384l-3.01.226V4.38c.993-.076 1.99-.152 3.002-.227.008.09.02.143.02.2 0 .056-.008.113-.016.192l-2.58.192v.566c.769-.057 1.522-.11 2.295-.163v.385l-2.299.177v.618c.853-.06 1.701-.12 2.588-.18zM19.119 5.94v-.622h-1.206v-.381h1.64c.023.456.015.908.004 1.38-.103.007-.187.018-.27.018-.705 0-1.409-.003-2.117-.01-.125 0-.25-.012-.372-.035-.267-.045-.427-.192-.438-.456-.02-.449-.02-.9 0-1.35.015-.29.179-.44.472-.5.103-.023.21-.038.316-.038.696 0 1.389.003 2.085.003.046 0 .091.008.156.015v.374h-.316c-.635 0-1.275-.004-1.91-.004-.354 0-.4.053-.4.403 0 .298-.004.592 0 .89.004.215.084.301.297.301.674.015 1.347.012 2.059.012zM21.007 4.387v.565c.772.03 1.53.06 2.31.094v.373c-.377.034-.758-.034-1.138-.034-.385-.003-.77 0-1.169 0v.589c.864.033 1.72.071 2.607.105.008.124.012.234.02.388-1.017-.037-2.014-.075-3.053-.117-.004-.78 0-1.549 0-2.355 1.024.003 2.02.06 3.033.109v.377c-.871-.034-1.724-.064-2.61-.094zM27.94 5.589c0 .211.008.422-.004.63-.015.297-.17.46-.468.474a6.072 6.072 0 0 1-.692-.018c-.423-.027-.845-.06-1.267-.095a2.832 2.832 0 0 1-.4-.056c-.293-.068-.442-.219-.457-.517a16.94 16.94 0 0 1-.004-1.319c.012-.301.172-.44.476-.471.107-.011.213-.015.316-.008.586.042 1.172.083 1.758.132.095.008.19.03.282.057.304.094.441.275.456.588v.056c.008.185.008.366.004.547.004 0 0 0 0 0zm-.41-.034c0-.173.003-.343 0-.516-.008-.208-.07-.283-.27-.298-.644-.057-1.287-.106-1.93-.15-.18-.012-.263.052-.267.225-.011.373-.011.743 0 1.116.004.162.092.234.263.249.643.053 1.286.098 1.93.143.193.011.258-.056.266-.249.015-.177.007-.35.007-.52zM4.346 6.41v.728c-.145.02-.267.03-.404.05v-2.36c.335-.042.666-.09.997-.129.468-.052.94-.101 1.408-.147.103-.01.214-.003.316.012.225.034.38.166.404.388.022.245.026.494-.004.739-.03.241-.21.388-.442.44-.236.054-.475.076-.711.106l-1.564.174zm.019-.395c.217-.023.395-.045.578-.064.487-.053.974-.106 1.461-.166.214-.026.26-.087.267-.298a3.595 3.595 0 0 0 0-.286c-.008-.238-.069-.29-.297-.268-.354.034-.708.072-1.062.113-.312.038-.624.08-.947.12v.849zM12.509 4.093v.965c0 .237-.004.478 0 .716.003.222.057.282.27.279a96.898 96.898 0 0 0 1.823-.072c.24-.011.285-.068.289-.301.004-.46 0-.92.004-1.38 0-.094.007-.185.015-.294h.4c.003.083.015.158.015.234 0 .467.004.938 0 1.406-.004.5-.164.682-.662.712-.617.034-1.233.049-1.854.075h-.057c-.495-.018-.662-.177-.67-.663-.007-.441 0-.882 0-1.32V4.12c.149-.011.27-.019.427-.026zM31.88 4.816v.389c-.446-.046-.884-.095-1.356-.144v1.972c-.16-.023-.281-.038-.434-.057V5.012c-.475-.052-.92-.101-1.377-.154V4.47c1.058.113 2.1.23 3.166.346z" fill="#FFF"/>
        <path d="M11.96 19.675c-.262.362-.525.728-.79 1.09a.325.325 0 0 1-.134.105c-.339.124-.685.241-1.024.358-.007-.019-.019-.034-.026-.053.635-.52 1.274-1.04 1.91-1.56.019.019.042.041.065.06zM8.224 18.876c-.05.354-.092.656-.137.957-.008.053-.027.106-.054.2-.198-.226-.373-.422-.57-.648.152-.294.407-.422.76-.509zM10.75 13.78l.491-.027c.153.4.061.498-.513.562.007-.17.011-.335.022-.535z" fill="#FFF"/>
        <path d="M27.53 5.555c0 .174.003.343 0 .517-.008.192-.077.26-.267.248-.643-.041-1.286-.09-1.93-.143-.17-.015-.258-.087-.262-.249a18.177 18.177 0 0 1 0-1.115c.004-.17.087-.238.266-.227.643.046 1.287.095 1.93.151.201.019.262.09.27.298-.004.173-.008.347-.008.52zM4.365 6.015v-.848c.323-.042.635-.083.947-.12.354-.042.708-.08 1.062-.114.228-.022.29.034.297.268.004.094.004.192 0 .286-.008.211-.053.272-.267.298-.487.06-.974.11-1.46.166-.184.019-.362.041-.58.064z" fill="#000"/>
    </g>
</svg>
