<?xml version="1.0" encoding="utf-8"?>
<!-- Generator: Adobe Illustrator 19.2.1, SVG Export Plug-In . SVG Version: 6.00 Build 0)  -->
<svg version="1.1" id="layer" xmlns="http://www.w3.org/2000/svg" xmlns:xlink="http://www.w3.org/1999/xlink" x="0px" y="0px"
	 viewBox="0 0 652 652" style="enable-background:new 0 0 652 652;" xml:space="preserve">
<path d="M434.3,295v39.9c0,7.3-4.3,11-12.4,11.2h-20.9c-2.1,0-3.7,1.7-3.7,3.8c0,0,0,0,0,0v7.4h52c16.7,0,25.6-4.9,25.6-18.6V295
	L434.3,295L434.3,295z M626.3,294.9h-40.5v39.9c0,7.3-4.3,11-12.4,11.2h-31.1c-8.1-0.1-12.4-3.9-12.4-11.2v-39.9h-40.5v43.6
	c0,13.7,8.9,18.6,25.6,18.6h85.8c16.8,0,25.6-4.9,25.6-18.6L626.3,294.9L626.3,294.9z M194.5,294.9H235v62.2h-40.5V294.9z
	 M127.4,333c-0.1-0.1-0.2-0.2-0.1-0.3c0-0.1,0.1-0.1,0.2-0.1c3,0,10.7,0,13,0c22.4,0,39.3-5.3,39.3-16.3v-5.4
	c0-13.5-12.6-16.1-39.3-16.1h-114c-0.1,0-0.2,0.1-0.2,0.2v61.8c0,0.1,0.1,0.2,0.2,0.2h40c0.1,0,0.2-0.1,0.2-0.2c0,0,0,0,0,0v-45.2
	c0-3.2,2.5-5.8,5.7-5.8h54.8c2.2,0,4,1.9,4,4.1c0,0,0,0,0,0v8.2c0,2.2-1.8,4.1-4,4.1c0,0,0,0,0,0h-1.4c-0.8,0-1.7,0.1-2.7,0.1H83.1
	c-2.2,0-4,1.8-3.9,4.1c0,0,0,0,0,0v8.3c0,0.1,0,0.2,0.1,0.2l44.9,22.1h0.1h56.5c0.1,0,0.2-0.1,0.2-0.3c0-0.1-0.1-0.2-0.1-0.2
	L127.4,333z M294.5,345.9c-2.1,0-3.8-1.8-3.8-3.9c0,0,0,0,0,0v-6.5c0-2.1,1.7-3.9,3.8-3.9h89.8v-11.4h-89.8c-2.1,0-3.8-1.8-3.8-3.9
	c0,0,0,0,0,0v-6.5c0-2.1,1.7-3.9,3.8-3.9h89.8V295l-104.3-0.3c-21.6,0-31.2,4.3-31.2,19v22.9c0,14.8,10.5,20.3,34.1,20.3l101.4,0.3
	v-11.3H294.5z"/>
</svg>
